<svg width="40" height="32" viewBox="0 0 40 32" fill="none" xmlns="http://www.w3.org/2000/svg">
<mask id="mask0_49_31" style="mask-type:luminance" maskUnits="userSpaceOnUse" x="0" y="0" width="40" height="32">
<path d="M40 32H0V0H40V32Z" fill="white"/>
</mask>
<g mask="url(#mask0_49_31)">
<path d="M40.0003 32L27.0405 5.44898L26.3486 4.03223L25.5354 2.36197L25.4555 2.35029L21.5186 9.61056L22.2219 11.0598L27.6164 22.1247L40.0003 32Z" fill="url(#paint0_linear_49_31)"/>
<g style="mix-blend-mode:multiply" opacity="0.16">
<path d="M27.0405 5.44898L25.5354 2.36241L25.4555 2.35073L21.5186 9.61056L22.2215 11.0598C23.4454 9.64516 25.5061 7.24642 27.0405 5.44898Z" fill="black"/>
</g>
<path d="M18.6199 14.9518L25.4553 2.35248L18.2584 1.21212L14.9078 7.38833L18.6199 14.9518Z" fill="url(#paint1_linear_49_31)"/>
<g style="mix-blend-mode:screen" opacity="0.3">
<path d="M40 32L27.0401 5.44898L26.3483 4.03223C26.0557 3.46985 25.7552 2.90748 25.4562 2.35072C26.0207 3.61391 26.598 4.87016 27.1768 6.12599C27.7492 7.38398 28.3312 8.63578 28.9228 9.88136C30.1039 12.3735 31.2654 14.8843 32.4675 17.3653C33.6569 19.8518 34.869 22.322 36.0734 24.7977C37.0647 26.8015 38.057 28.8059 39.0508 30.8108C38.3867 30.2874 37.7237 29.7726 37.0507 29.2625L33.9202 26.8595C32.8783 26.0519 31.8316 25.2576 30.7801 24.4763C29.7296 23.6851 28.6791 22.8939 27.6175 22.123L40 32Z" fill="white"/>
</g>
<g style="mix-blend-mode:screen" opacity="0.3">
<path d="M18.6199 14.9518L24.9033 3.36947C24.9561 3.25484 25.0064 3.14413 25.056 3.0269C24.7509 3.49194 24.4594 3.96775 24.1621 4.44491C23.8706 4.92076 23.5698 5.39662 23.2883 5.87896C22.9978 6.36131 22.7131 6.8424 22.429 7.33037C22.1507 7.8166 21.8659 8.29765 21.5887 8.79081C21.0335 9.77133 20.4863 10.7571 19.9473 11.748C19.4962 12.5613 19.0602 13.3919 18.6227 14.2138C18.0768 13.1467 17.5212 12.0846 16.956 11.0273C16.6234 10.4134 16.2962 9.79833 15.9479 9.19572C15.6053 8.59009 15.2671 7.97926 14.9088 7.38617L18.6199 14.9518Z" fill="white"/>
</g>
<g style="mix-blend-mode:screen" opacity="0.15">
<path d="M28.2887 21.5671L36.9791 28.2788L27.1087 7.85381L28.2887 21.5671Z" fill="white"/>
</g>
<g style="mix-blend-mode:screen" opacity="0.15">
<path d="M15.579 7.36885L18.6584 12.727L24.0066 3.42098L15.579 7.36885Z" fill="white"/>
</g>
<path d="M0.00152588 -0.0017243L12.9613 26.5476L13.6532 27.9643L14.4664 29.6346L14.5463 29.6462L18.4839 22.3882L17.7806 20.9394L12.3835 9.87574L0.00152588 -0.0017243Z" fill="url(#paint2_linear_49_31)"/>
<g style="mix-blend-mode:multiply" opacity="0.16">
<path d="M12.9598 26.5493L14.465 29.6363L14.5449 29.6479L18.4825 22.3899L17.7792 20.9407C16.556 22.3574 14.4942 24.754 12.9598 26.5493Z" fill="black"/>
</g>
<path d="M21.3801 17.0487L14.5447 29.648L21.7412 30.7883L25.0919 24.6122L21.3801 17.0487Z" fill="url(#paint3_linear_49_31)"/>
<g style="mix-blend-mode:multiply" opacity="0.16">
<path d="M0.00152588 -0.00177237L12.9613 26.5471L13.6532 27.9638C13.9458 28.5262 14.2458 29.0886 14.5452 29.6458C13.9804 28.3826 13.4034 27.1263 12.8246 25.8701C12.2522 24.6123 11.6702 23.3607 11.0786 22.1151C9.89751 19.623 8.73602 17.1122 7.5335 14.6312C6.34454 12.1447 5.13239 9.67454 3.92773 7.19879C2.93646 5.195 1.94411 3.19061 0.950697 1.1857C1.61476 1.70914 2.27774 2.22393 2.95073 2.73353L6.0812 5.13704C7.1229 5.94452 8.16963 6.73894 9.22131 7.52021C10.2718 8.31143 11.3223 9.10264 12.3839 9.87353L0.00152588 -0.00177237Z" fill="black"/>
</g>
<g style="mix-blend-mode:multiply" opacity="0.3">
<path d="M21.3802 17.0486L15.0954 28.631C15.0429 28.7456 14.9922 28.8563 14.943 28.9736C15.2481 28.5085 15.5396 28.0327 15.8351 27.5555C16.1266 27.0797 16.4271 26.6038 16.7089 26.1215C16.9994 25.6391 17.2841 25.1581 17.5682 24.6705C17.8461 24.1839 18.1313 23.7028 18.4082 23.2097C18.9639 22.2291 19.511 21.2434 20.0496 20.2524C20.5006 19.4391 20.9367 18.6086 21.3742 17.7866C21.9201 18.8537 22.4755 19.9159 23.0405 20.9731C23.3734 21.587 23.7007 22.2021 24.0486 22.8047C24.3965 23.4074 24.7298 24.0212 25.0877 24.6143L21.3802 17.0486Z" fill="black"/>
</g>
<g style="mix-blend-mode:screen" opacity="0.3">
<path d="M11.7111 10.4333L3.02124 3.72156L12.8912 24.1465C12.8912 24.1465 12.8865 23.8901 11.7111 10.4333Z" fill="white"/>
</g>
<g style="mix-blend-mode:screen" opacity="0.2">
<path d="M24.4206 24.6316L21.3397 19.2735L15.9915 28.5795L24.4206 24.6316Z" fill="white"/>
</g>
</g>
<defs>
<linearGradient id="paint0_linear_49_31" x1="61.513" y1="-123.543" x2="87.1102" y2="-123.543" gradientUnits="userSpaceOnUse">
<stop stop-color="#233B55"/>
<stop offset="1" stop-color="#131D32"/>
</linearGradient>
<linearGradient id="paint1_linear_49_31" x1="58.2476" y1="-116.262" x2="58.2476" y2="-129.878" gradientUnits="userSpaceOnUse">
<stop stop-color="#233B55"/>
<stop offset="1" stop-color="#131D32"/>
</linearGradient>
<linearGradient id="paint2_linear_49_31" x1="-470.413" y1="-98.6999" x2="-444.814" y2="-98.6999" gradientUnits="userSpaceOnUse">
<stop stop-color="#F80300"/>
<stop offset="0.033" stop-color="#F81000"/>
<stop offset="0.158" stop-color="#F93F00"/>
<stop offset="0.288" stop-color="#FA6800"/>
<stop offset="0.419" stop-color="#FA8900"/>
<stop offset="0.554" stop-color="#FBA300"/>
<stop offset="0.693" stop-color="#FBB500"/>
<stop offset="0.838" stop-color="#FBC000"/>
<stop offset="1" stop-color="#FCC400"/>
</linearGradient>
<linearGradient id="paint3_linear_49_31" x1="-473.675" y1="-91.4261" x2="-473.675" y2="-105.042" gradientUnits="userSpaceOnUse">
<stop stop-color="#F80300"/>
<stop offset="0.033" stop-color="#F81000"/>
<stop offset="0.158" stop-color="#F93F00"/>
<stop offset="0.288" stop-color="#FA6800"/>
<stop offset="0.419" stop-color="#FA8900"/>
<stop offset="0.554" stop-color="#FBA300"/>
<stop offset="0.693" stop-color="#FBB500"/>
<stop offset="0.838" stop-color="#FBC000"/>
<stop offset="1" stop-color="#FCC400"/>
</linearGradient>
</defs>
</svg>
