<svg width="68" height="52" viewBox="0 0 68 52" fill="none" xmlns="http://www.w3.org/2000/svg">
<mask id="mask0_49_441" style="mask-type:luminance" maskUnits="userSpaceOnUse" x="0" y="0" width="68" height="52">
<path d="M68 0H0V52H68V0Z" fill="white"/>
</mask>
<g mask="url(#mask0_49_441)">
<path d="M33.3173 24.984V9.56674L19.7585 -0.00109863V13.4397C4.48874 17.0846 7.39821 20.6064 9.74035 22.1124L0 26.1293L15.8768 32.6811L31.961 26.1293L15.8768 19.5825L10.0651 21.9798C7.57101 19.0857 15.1654 15.6252 19.7585 13.8685V15.6106L33.3173 24.984Z" fill="#BF0A44"/>
<path d="M49.0723 36.39L35.5134 27.0154V42.432L41.4425 46.6164C40.394 50.5688 34.4695 47.6008 30.1992 44.834L33.6062 42.432V27.0154L20.0474 36.39V52L29.5595 45.2884C40.13 54.5956 41.4015 48.6984 41.541 46.6832L49.0727 52L49.0723 36.39Z" fill="#0063B0"/>
<path d="M53.8355 20.3642C57.4404 5.91908 50.9898 8.20624 48.7826 9.34196V0L35.2233 9.56728V24.984L48.7826 15.6078V9.46556C53.5668 7.91344 53.6855 15.5544 53.3469 20.1646L51.9199 19.583L36.0429 26.1304L51.9199 32.6822L68.0028 26.1304L53.8355 20.3642Z" fill="#249795"/>
</g>
</svg>
