<svg width="60" height="43" viewBox="0 0 60 43" fill="none" xmlns="http://www.w3.org/2000/svg">
<path d="M36.9245 33.0773C29.278 33.0773 13.9611 37.5197 13.9611 43H13.8479C13.8479 38.6138 16.2791 34.4073 20.6067 31.3058C24.9342 28.2042 30.8036 26.4617 36.9239 26.4616C40.596 26.4616 44.1179 25.4161 46.7146 23.5552C49.3113 21.6943 50.7701 19.1704 50.7701 16.5387C50.7709 13.907 49.3128 11.3826 46.7166 9.5214C44.1204 7.66 40.5989 6.61415 36.9268 6.61353C33.2544 6.61311 29.7323 7.65814 27.1351 9.51872C24.538 11.3793 23.0785 13.9031 23.0777 16.5347C23.0777 18.7067 22.4807 20.8573 21.3209 22.8637C20.1611 24.8703 18.4611 26.6935 16.3182 28.2291C14.1752 29.7648 11.6312 30.983 8.83127 31.8141C6.03141 32.6451 3.03052 33.0729 0 33.0728V32.9923C7.64547 32.9923 13.8442 22.0199 13.847 16.5389H13.8456C13.8456 13.2678 15.1989 10.0703 17.7345 7.35052C20.2702 4.63077 23.8742 2.51096 28.0909 1.2592C32.3077 0.00723957 36.9476 -0.320429 41.4242 0.317749C45.9005 0.95572 50.0126 2.5308 53.2402 4.8435C56.4675 7.1564 58.6655 10.1031 59.5563 13.3114C60.4471 16.5194 59.9901 19.8447 58.2438 22.8668C56.4975 25.8889 53.5399 28.472 49.7452 30.2894C45.9502 32.1069 41.4885 33.0771 36.9245 33.0773Z" fill="url(#paint0_linear_49_34)"/>
<defs>
<linearGradient id="paint0_linear_49_34" x1="47.82" y1="5.805" x2="26.2871" y2="47.0729" gradientUnits="userSpaceOnUse">
<stop offset="0.295" stop-color="#E73959"/>
<stop offset="0.384" stop-color="#E73D58"/>
<stop offset="0.477" stop-color="#E74955"/>
<stop offset="0.571" stop-color="#E95E51"/>
<stop offset="0.666" stop-color="#EA7B4B"/>
<stop offset="0.761" stop-color="#EDA044"/>
<stop offset="0.857" stop-color="#EFCE3B"/>
<stop offset="0.868" stop-color="#F0D43A"/>
</linearGradient>
</defs>
</svg>
