<svg width="96" height="73" viewBox="0 0 96 73" fill="none" xmlns="http://www.w3.org/2000/svg">
<path d="M20 39.1733H67.44L52.92 52.3115C52.5838 52.6162 52.3306 52.9678 52.1748 53.3462C52.019 53.7246 51.9636 54.1225 52.0119 54.517C52.1094 55.3138 52.6231 56.0488 53.44 56.5603C54.2569 57.0717 55.31 57.3178 56.3677 57.2443C57.4254 57.1709 58.401 56.7839 59.08 56.1685L79.08 38.0885C79.2146 37.9447 79.3349 37.7936 79.44 37.6365C79.44 37.4859 79.64 37.3955 79.72 37.2448C79.9013 36.8993 79.9962 36.5315 80 36.16C79.9962 35.7885 79.9013 35.4207 79.72 35.0752C79.72 34.9245 79.52 34.8341 79.44 34.6835C79.3349 34.5263 79.2146 34.3753 79.08 34.2315L59.08 16.1515C58.7039 15.8113 58.2329 15.5378 57.7006 15.3503C57.1683 15.1628 56.5876 15.0659 56 15.0667C55.0654 15.0653 54.1596 15.3105 53.44 15.7597C53.035 16.0127 52.7002 16.3234 52.4547 16.674C52.2093 17.0246 52.0582 17.4082 52.0099 17.8028C51.9615 18.1975 52.0171 18.5955 52.1733 18.974C52.3294 19.3525 52.5832 19.704 52.92 20.0085L67.44 33.1467H20C18.9391 33.1467 17.9217 33.4641 17.1716 34.0292C16.4214 34.5944 16 35.3608 16 36.16C16 36.9592 16.4214 37.7256 17.1716 38.2907C17.9217 38.8558 18.9391 39.1733 20 39.1733Z" fill="#231F20"/>
</svg>
