<svg width="47" height="37" viewBox="0 0 47 37" fill="none" xmlns="http://www.w3.org/2000/svg">
<path d="M42.5938 0H4.40625C1.97271 0 0 2.03372 0 4.5425V31.7975C0 34.3063 1.97271 36.34 4.40625 36.34H42.5938C45.0273 36.34 47 34.3063 47 31.7975V4.5425C47 2.03372 45.0273 0 42.5938 0ZM42.5938 4.5425V8.4041C40.5355 10.132 37.2541 12.8189 30.2391 18.4818C28.6931 19.7355 25.6308 22.7472 23.5 22.7121C21.3696 22.7476 18.3062 19.735 16.7609 18.4818C9.74699 12.8198 6.46479 10.1323 4.40625 8.4041V4.5425H42.5938ZM4.40625 31.7975V14.233C6.50968 15.9602 9.49262 18.3839 14.0392 22.0542C16.0456 23.6824 19.5593 27.2768 23.5 27.2549C27.4213 27.2768 30.8905 23.7346 32.9599 22.055C37.5065 18.3847 40.4902 15.9604 42.5938 14.2331V31.7975H4.40625Z" fill="black"/>
</svg>
