<svg width="79" height="55" viewBox="0 0 79 55" fill="none" xmlns="http://www.w3.org/2000/svg">
<mask id="mask0_86_10" style="mask-type:luminance" maskUnits="userSpaceOnUse" x="0" y="0" width="79" height="55">
<path d="M79 0H0V55H79V0Z" fill="white"/>
</mask>
<g mask="url(#mask0_86_10)">
<path d="M38.7069 26.4254V10.1187L22.9547 -0.0011673V14.2151C5.21486 18.0703 8.59498 21.7952 11.316 23.3881L0 27.6368L18.4451 34.5666L37.1312 27.6368L18.4451 20.7123L11.6932 23.2479C8.79573 20.1868 17.6187 16.5267 22.9547 14.6686V16.5112L38.7069 26.4254Z" fill="#BF0A44"/>
<path d="M57.0104 38.4894L41.2582 28.574V44.88L48.1464 49.3058C46.9283 53.4862 40.0454 50.347 35.0843 47.4206L39.0425 44.88V28.574L23.2903 38.4894V55L34.3412 47.9012C46.6215 57.7453 48.0987 51.5079 48.2608 49.3765L57.0109 55L57.0104 38.4894Z" fill="#0063B0"/>
<path d="M62.5442 21.539C66.7323 6.26057 59.2381 8.67968 56.6738 9.88092V0L40.9211 10.1192V26.4254L56.6738 16.5082V10.0117C62.232 8.36998 62.37 16.4517 61.9766 21.328L60.3187 20.7128L41.8734 27.6379L60.3187 34.5677L79.0032 27.6379L62.5442 21.539Z" fill="#249795"/>
</g>
</svg>
