<svg width="63" height="20" viewBox="0 0 63 20" fill="none" xmlns="http://www.w3.org/2000/svg">
<mask id="mask0_97_27" style="mask-type:luminance" maskUnits="userSpaceOnUse" x="0" y="0" width="63" height="20">
<path d="M63 0H0V19.075H63V0Z" fill="white"/>
</mask>
<g mask="url(#mask0_97_27)">
<path d="M62.6203 1.11791C62.6138 1.12082 62.6072 1.12082 62.6072 1.12691L62.5934 1.13273C62.5731 1.142 62.5659 1.14491 62.5731 1.14491L43.0275 10.2358L38.4238 12.3776C38.4156 12.3749 38.4063 12.373 38.3963 12.3718L38.315 12.3538L19.4901 8.63542L20.1765 8.4941L23.35 7.83537L27.7744 6.91781C27.7822 6.9149 27.7914 6.91281 27.8013 6.91173H27.8084L60.8237 0.0680235C61.1388 0.0025099 61.4957 -0.01308 61.8341 0.0238686C62.1719 0.0608173 62.4715 0.148067 62.6819 0.271012C62.8924 0.39396 63.0012 0.545152 62.9898 0.699308C62.9785 0.853465 62.8481 1.00124 62.6203 1.11791Z" fill="url(#paint0_linear_97_27)"/>
<g style="mix-blend-mode:multiply" opacity="0.2">
<path d="M0.253534 5.6634H0.261046C0.25353 5.66616 0.253533 5.66892 0.246643 5.67193C0.24611 5.67037 0.246453 5.66882 0.247646 5.66734C0.248839 5.66586 0.250853 5.66451 0.253534 5.6634Z" fill="black"/>
</g>
<g style="mix-blend-mode:multiply" opacity="0.2">
<path d="M38.4263 12.3777C38.4263 12.3777 37.8075 12.2784 36.7337 12.0979C35.6576 11.9084 34.124 11.656 32.2963 11.3249C30.4679 10.9999 28.3407 10.6119 26.0783 10.1847C23.8159 9.75759 21.4094 9.28836 19.0036 8.81912C17.8078 8.57829 16.612 8.34063 15.436 8.10297C14.26 7.87139 13.1114 7.62659 11.9904 7.39925C9.7615 6.93875 7.68864 6.49942 5.92131 6.1117C5.03106 5.92195 4.2293 5.74119 3.50885 5.57922C3.1555 5.49982 2.81591 5.42254 2.51637 5.35955C2.24749 5.3035 1.94942 5.28066 1.65363 5.29339C1.22486 5.31065 0.823124 5.39359 0.517647 5.52787C0.490807 5.53915 0.465831 5.55127 0.442912 5.56413C0.421986 5.57313 0.401663 5.58504 0.383129 5.59404C0.36326 5.60214 0.345051 5.611 0.32872 5.6205C0.566807 5.45028 0.937803 5.3247 1.37128 5.26756C1.80476 5.21042 2.27054 5.22574 2.68019 5.31059L19.4938 8.63466L20.1802 8.49333C22.3326 8.9234 24.4819 9.35372 26.4938 9.77188C28.7227 10.2321 30.7956 10.6744 32.5689 11.0594C34.3422 11.4445 35.7975 11.7782 36.8234 12.0069C37.5911 12.1816 38.1077 12.3017 38.3181 12.3531L38.3994 12.3711C38.4093 12.3725 38.4184 12.3747 38.4263 12.3777Z" fill="black"/>
</g>
<path d="M38.4268 12.3777L31.0131 15.8282C31.0079 15.831 31.0035 15.834 30.9999 15.8372C30.9999 15.8372 30.9928 15.8343 30.9928 15.8372L25.0803 18.5896C24.9947 18.63 24.9041 18.6681 24.8089 18.704C24.4369 18.8435 24.0038 18.9474 23.5368 19.0092C23.0697 19.071 22.5788 19.0893 22.0949 19.063C21.611 19.0367 21.1447 18.9664 20.7253 18.8565C20.3058 18.7466 19.9422 18.5994 19.6575 18.4242L7.86609 11.1743V11.1714C7.85234 11.1682 7.85234 11.1653 7.85234 11.1653L7.71004 11.078L0.370434 6.5685C0.157987 6.44374 0.0314858 6.29447 0.00613596 6.13862C-0.0192139 5.98279 0.057668 5.82704 0.227541 5.69011C0.233854 5.68656 0.238524 5.68251 0.241289 5.6782L0.243953 5.67796L0.24617 5.67724L0.247547 5.67621L0.247867 5.67502V5.67211C0.247358 5.67047 0.247686 5.66883 0.248825 5.66727C0.249964 5.66571 0.251885 5.66428 0.254445 5.66311H0.261615C0.274768 5.65094 0.302275 5.63903 0.32918 5.62103C0.567267 5.45081 0.938265 5.3252 1.37174 5.26806C1.80522 5.21095 2.271 5.22627 2.68065 5.31112L19.4943 8.63519L38.3192 12.3536L38.4005 12.3716C38.41 12.3729 38.419 12.3749 38.4268 12.3777Z" fill="url(#paint1_linear_97_27)"/>
<g style="mix-blend-mode:multiply" opacity="0.2">
<path d="M43.0275 10.2358L38.4238 12.3777C38.4156 12.375 38.4063 12.373 38.3963 12.3719L19.4901 8.63548L20.1765 8.49415L23.35 7.83543L43.0275 10.2358Z" fill="black"/>
</g>
<g style="mix-blend-mode:screen" opacity="0.5">
<path d="M0.253517 5.6634H0.261029C0.253513 5.66922 0.246626 5.6724 0.246626 5.67531C0.245606 5.67113 0.248041 5.66692 0.253517 5.6634Z" fill="white"/>
</g>
<g style="mix-blend-mode:screen" opacity="0.5">
<path d="M38.4263 12.3777C38.4263 12.3777 37.8075 12.2784 36.7337 12.0979C35.6576 11.9084 34.124 11.656 32.2963 11.3249C30.4679 10.9999 28.3407 10.6119 26.0783 10.1847C23.8159 9.75759 21.4094 9.28836 19.0036 8.81912C17.8078 8.57829 16.612 8.34063 15.436 8.10297C14.26 7.87139 13.1114 7.62659 11.9904 7.39925C9.7615 6.93875 7.68864 6.49942 5.92131 6.1117C5.03106 5.92195 4.2293 5.74119 3.50885 5.57922C3.1555 5.49982 2.81591 5.42254 2.51637 5.35955C2.24749 5.3035 1.94942 5.28066 1.65363 5.29339C1.22486 5.31065 0.823124 5.39359 0.517647 5.52787C0.490807 5.53915 0.465831 5.55127 0.442912 5.56413C0.421081 5.57332 0.401083 5.58335 0.383129 5.59404C0.36326 5.60214 0.345051 5.611 0.32872 5.6205C0.566807 5.45028 0.937803 5.3247 1.37128 5.26756C1.80476 5.21042 2.27054 5.22574 2.68019 5.31059L19.4938 8.63466L38.3187 12.3531L38.4 12.3711C38.4097 12.3725 38.4186 12.3748 38.4263 12.3777Z" fill="white"/>
</g>
<g style="mix-blend-mode:multiply" opacity="0.2">
<path d="M30.9914 15.8373L25.0789 18.5897C24.9934 18.63 24.9027 18.6682 24.8075 18.704C24.4355 18.8435 24.0024 18.9474 23.5354 19.0092C23.0683 19.071 22.5774 19.0893 22.0935 19.063C21.6097 19.0368 21.1434 18.9664 20.7239 18.8565C20.3044 18.7466 19.9409 18.5994 19.6561 18.4243L7.86472 11.1743C7.94663 11.2135 8.28622 11.3908 8.82133 11.6772C9.41921 12.008 10.3029 12.4743 11.3157 13.0459C12.3285 13.6176 13.5039 14.2882 14.7338 15.0163C15.9708 15.7383 17.255 16.5248 18.5465 17.3056L19.4977 17.8984L19.9664 18.193L20.089 18.2652C20.12 18.2863 20.1542 18.3064 20.1912 18.3255C20.2629 18.3686 20.343 18.4088 20.4304 18.4457C20.7437 18.5859 21.1229 18.6939 21.541 18.762C21.9592 18.8301 22.4061 18.8567 22.85 18.8398C23.2841 18.824 23.7058 18.7676 24.087 18.6744C24.2695 18.6299 24.4403 18.5766 24.5964 18.5156L24.7328 18.4645L24.7866 18.4433L24.8464 18.4131L25.0975 18.3049C25.7635 18.0101 26.4026 17.7364 27.0005 17.4845C28.1766 16.979 29.1959 16.573 29.8889 16.2782C30.5101 16.0278 30.9035 15.869 30.9914 15.8373Z" fill="black"/>
</g>
<g style="mix-blend-mode:screen" opacity="0.5">
<path d="M62.8039 0.973425C62.887 0.890246 62.9283 0.799906 62.9235 0.708892C62.9187 0.617879 62.8685 0.528455 62.777 0.447032C62.655 0.325738 62.4446 0.225976 62.1797 0.163631C61.9154 0.101286 61.6111 0.0799351 61.3158 0.102976C60.9439 0.15743 60.5881 0.231169 60.2557 0.322644C59.8683 0.409715 59.4602 0.503133 59.0387 0.599203C57.3396 0.987451 55.3486 1.4297 53.2076 1.89602C52.1314 2.12468 51.0265 2.37239 49.8911 2.60582C48.7558 2.83924 47.6151 3.08431 46.4665 3.32489C44.1557 3.80126 41.8449 4.27235 39.6632 4.70268C37.4816 5.13301 35.4434 5.52681 33.6844 5.85472C31.9243 6.18872 30.4426 6.44437 29.4095 6.63386C28.5193 6.79266 27.9483 6.88661 27.8126 6.91069L60.8279 0.0669864C61.143 0.00211829 61.4987 -0.0129728 61.8365 0.0242286C62.1737 0.0614302 62.4721 0.148678 62.6819 0.271438C62.8918 0.394198 63 0.54506 62.9886 0.698893C62.9779 0.852726 62.8481 1.00024 62.6215 1.11688C62.6939 1.07221 62.7549 1.02409 62.8039 0.973425Z" fill="white"/>
</g>
<g style="mix-blend-mode:screen" opacity="0.3">
<path d="M61.241 0.892175L58.7607 2.04449C56.9734 2.87478 55.1883 3.70503 53.4054 4.53515L28.7631 7.37807C34.5399 6.18077 40.3194 4.98347 46.1017 3.78618C50.7022 2.83342 55.3059 1.87881 59.9125 0.922351C60.3544 0.832104 60.7962 0.738678 61.238 0.648431C61.7791 0.5341 61.4712 0.783667 61.241 0.892175Z" fill="white"/>
</g>
<g style="mix-blend-mode:screen" opacity="0.3">
<path d="M36.1225 12.5794C34.9941 13.1 33.8705 13.6224 32.7517 14.1467C32.439 14.2912 32.1269 14.4378 31.8142 14.5828L1.93143 5.8529C2.27519 5.88 2.60462 5.9351 2.90298 6.0154C7.74226 6.97186 12.5833 7.92851 17.4261 8.88531C23.6588 10.1183 29.891 11.3496 36.1225 12.5794Z" fill="white"/>
</g>
</g>
<defs>
<linearGradient id="paint0_linear_97_27" x1="7.7015" y1="6.19097" x2="62.9904" y2="6.19097" gradientUnits="userSpaceOnUse">
<stop stop-color="#F8007A"/>
<stop offset="1" stop-color="#FC7300"/>
</linearGradient>
<linearGradient id="paint1_linear_97_27" x1="34.0079" y1="9.67692" x2="16.4245" y2="25.1554" gradientUnits="userSpaceOnUse">
<stop stop-color="#FCC400"/>
<stop offset="0.162" stop-color="#FBC000"/>
<stop offset="0.307" stop-color="#FBB500"/>
<stop offset="0.446" stop-color="#FBA300"/>
<stop offset="0.581" stop-color="#FA8900"/>
<stop offset="0.712" stop-color="#FA6800"/>
<stop offset="0.842" stop-color="#F93F00"/>
<stop offset="0.967" stop-color="#F81000"/>
<stop offset="1" stop-color="#F80300"/>
</linearGradient>
</defs>
</svg>
